<?xml version="1.0" encoding="utf-8"?><svg xmlns="http://www.w3.org/2000/svg" xmlns:xlink="http://www.w3.org/1999/xlink"><symbol viewBox="0 0 99.084 99.084" id="cabrio-car" xmlns="http://www.w3.org/2000/svg"><path d="M25.263 56.561a7.265 7.265 0 0 0-7.268-7.267 7.266 7.266 0 0 0-7.267 7.267c0 .312.026.614.064.913.45 3.581 3.501 6.354 7.202 6.354 3.804 0 6.919-2.924 7.237-6.647.017-.206.032-.411.032-.62zm-10.908-2.739l1.483 1.481a2.47 2.47 0 0 0-.262.641h-2.09a4.54 4.54 0 0 1 .869-2.122zm-.875 3.38h2.104c.06.224.146.438.263.629l-1.484 1.487a4.52 4.52 0 0 1-.883-2.116zm3.887 3.874a4.512 4.512 0 0 1-2.108-.875l1.477-1.479a2.5 2.5 0 0 0 .632.255l-.001 2.099zm0-6.933c-.229.06-.444.15-.644.269l-1.479-1.479a4.514 4.514 0 0 1 2.123-.879v2.089zm1.256-2.091c.794.11 1.517.417 2.124.879l-1.479 1.479a2.534 2.534 0 0 0-.645-.269v-2.089zm0 9.022v-2.098c.226-.059.438-.143.632-.256l1.479 1.479a4.529 4.529 0 0 1-2.111.875zm3.012-1.751l-1.49-1.492c.115-.195.211-.403.271-.629h2.088a4.541 4.541 0 0 1-.869 2.121zm-1.219-3.378a2.501 2.501 0 0 0-.263-.641l1.483-1.482c.459.608.763 1.329.87 2.122l-2.09.001zm56.702-6.651a7.265 7.265 0 0 0-7.266 7.267c0 .312.025.614.062.913.45 3.581 3.502 6.354 7.202 6.354a7.265 7.265 0 0 0 7.237-6.647c.016-.205.031-.41.031-.619a7.26 7.26 0 0 0-7.266-7.268zm-3.639 4.528l1.483 1.481a2.546 2.546 0 0 0-.264.641H72.61a4.53 4.53 0 0 1 .869-2.122zm-.875 3.38h2.104c.062.224.146.438.264.629l-1.485 1.488a4.519 4.519 0 0 1-.883-2.117zm3.886 3.874a4.508 4.508 0 0 1-2.107-.875l1.478-1.479c.194.114.407.196.631.255l-.002 2.099zm0-6.933c-.229.06-.442.15-.643.269l-1.479-1.479a4.51 4.51 0 0 1 2.122-.879v2.089zm1.256-2.091c.795.11 1.518.417 2.125.879l-1.479 1.479a2.541 2.541 0 0 0-.646-.269v-2.089zm0 9.022v-2.098c.227-.059.438-.143.634-.256l1.479 1.479a4.536 4.536 0 0 1-2.113.875zm3.014-1.751l-1.491-1.492c.115-.195.212-.403.271-.629h2.089a4.562 4.562 0 0 1-.869 2.121zm-1.221-3.378a2.499 2.499 0 0 0-.262-.641l1.482-1.481c.458.608.762 1.329.869 2.122h-2.089z"/><path d="M97.562 47.933c-8.3-7.166-18.199-7.523-18.199-7.523l-5.721-1.796a1.547 1.547 0 0 0-1.936 1.004l-.454 1.426-10.524.787-.216-2.097a1.259 1.259 0 0 0-1.287-1.13l-.697.019a1.26 1.26 0 0 0-1.226 1.259v2.367l-15.8.719c.347-1.16-.412-1.889-.412-1.889l6.547-3.097a1.167 1.167 0 0 0 .045-2.088l-.766-.404a2.037 2.037 0 0 0-1.678-.099c-2.412.925-9.514 3.716-16.767 7.192-10.716.752-22.623 2.835-25.487 4.68C.119 49.109-.157 51.391.055 53.759a7.55 7.55 0 0 0 6.307 6.778l4.693.764.148-.001a8.211 8.211 0 0 1-1.43-3.694 8.327 8.327 0 0 1-.072-1.043c0-4.571 3.719-8.291 8.292-8.291s8.294 3.72 8.294 8.291c0 .235-.017.47-.034.699a8.196 8.196 0 0 1-1.391 3.901l44.468-.447.61-.022a8.24 8.24 0 0 1-1.044-3.088 8.327 8.327 0 0 1-.072-1.043c0-4.571 3.721-8.291 8.292-8.291 4.574 0 8.294 3.72 8.294 8.291a8.171 8.171 0 0 1-.819 3.553l10.229-.402.685-.754a14.625 14.625 0 0 0 3.481-6.788 4.39 4.39 0 0 0-1.424-4.239z"/></symbol><symbol viewBox="0 0 512 512" id="calendar_" xmlns="http://www.w3.org/2000/svg"><path d="M452 40h-24V0h-40v40H124V0H84v40H60C26.916 40 0 66.916 0 100v352c0 33.084 26.916 60 60 60h392c33.084 0 60-26.916 60-60V100c0-33.084-26.916-60-60-60zm20 412c0 11.028-8.972 20-20 20H60c-11.028 0-20-8.972-20-20V188h432v264zm0-304H40v-48c0-11.028 8.972-20 20-20h24v40h40V80h264v40h40V80h24c11.028 0 20 8.972 20 20v48z"/><path d="M76 230h40v40H76zm80 0h40v40h-40zm80 0h40v40h-40zm80 0h40v40h-40zm80 0h40v40h-40zM76 310h40v40H76zm80 0h40v40h-40zm80 0h40v40h-40zm80 0h40v40h-40zM76 390h40v40H76zm80 0h40v40h-40zm80 0h40v40h-40zm80 0h40v40h-40zm80-80h40v40h-40z"/></symbol><symbol viewBox="0 0 99.04 99.04" id="car-black-side-view-pointing-left" xmlns="http://www.w3.org/2000/svg"><path d="M17.293 52.706a7.082 7.082 0 0 0-7.084 7.083c0 .304.025.6.063.892.438 3.491 3.413 6.194 7.021 6.194 3.709 0 6.746-2.851 7.056-6.48.016-.199.03-.4.03-.604a7.083 7.083 0 0 0-7.086-7.085zm-3.549 4.413l1.446 1.445a2.411 2.411 0 0 0-.256.624h-2.037a4.421 4.421 0 0 1 .847-2.069zm-.853 3.296h2.051c.059.218.143.426.256.613l-1.448 1.449a4.411 4.411 0 0 1-.859-2.062zm3.79 3.776a4.387 4.387 0 0 1-2.056-.854l1.44-1.44c.189.11.397.19.615.248l.001 2.046zm0-6.758a2.409 2.409 0 0 0-.627.261l-1.442-1.442a4.392 4.392 0 0 1 2.069-.855v2.036zm1.224-2.038a4.391 4.391 0 0 1 2.071.855l-1.442 1.442a2.495 2.495 0 0 0-.629-.262v-2.035zm0 8.794v-2.044c.22-.058.427-.14.616-.249l1.441 1.441a4.391 4.391 0 0 1-2.057.852zm2.937-1.707l-1.453-1.454c.112-.19.206-.395.264-.613h2.035a4.408 4.408 0 0 1-.846 2.067zm-1.188-3.294a2.411 2.411 0 0 0-.256-.624l1.445-1.445c.447.595.743 1.296.848 2.069h-2.037zm58.843-6.933a7.082 7.082 0 0 0-7.083 7.084c0 .304.024.6.062.892.439 3.49 3.412 6.193 7.021 6.193a7.085 7.085 0 0 0 7.057-6.48c.017-.199.029-.4.029-.604a7.082 7.082 0 0 0-7.086-7.085zm-3.549 4.414l1.446 1.444a2.434 2.434 0 0 0-.256.623h-2.037a4.41 4.41 0 0 1 .847-2.067zm-.852 3.295h2.051c.059.219.143.426.256.613l-1.447 1.449a4.392 4.392 0 0 1-.86-2.062zm3.789 3.776a4.391 4.391 0 0 1-2.056-.854l1.44-1.44c.189.112.396.19.615.248v2.046h.001zm0-6.759a2.409 2.409 0 0 0-.627.261L75.816 55.8a4.403 4.403 0 0 1 2.068-.855v2.036zm1.227-2.038a4.398 4.398 0 0 1 2.069.855l-1.442 1.442a2.443 2.443 0 0 0-.627-.261v-2.036zm0 8.795v-2.044a2.51 2.51 0 0 0 .614-.249l1.441 1.441a4.412 4.412 0 0 1-2.055.852zm2.935-1.707l-1.453-1.454c.111-.189.205-.394.265-.613h2.034a4.448 4.448 0 0 1-.846 2.067zm-1.188-3.295a2.512 2.512 0 0 0-.258-.623l1.447-1.444c.445.594.742 1.295.848 2.067h-2.037z"/><path d="M97.773 53.251l-.477-.211v-5.353a6.77 6.77 0 0 0-1.174-3.813l-4.134-6.08a9.095 9.095 0 0 0-6.298-3.898c-8.477-1.155-28.367-3.271-41.549.068-9.744 2.47-21.455 9.911-21.455 9.911s-15.031 2.447-18.352 4.26C1.791 49.524.289 51.304.033 53.858c-.121 1.225.099 2.846.361 4.202a3.938 3.938 0 0 0 3.121 3.116l5.532 1.063a8.557 8.557 0 0 1-.293-1.369 8.36 8.36 0 0 1-.074-1.081c0-4.748 3.861-8.61 8.609-8.61 4.749 0 8.612 3.862 8.612 8.61a8.573 8.573 0 0 1-.392 2.525H70.43a8.451 8.451 0 0 1-.469-1.895 8.36 8.36 0 0 1-.074-1.081c0-4.747 3.86-8.609 8.608-8.609 4.749 0 8.612 3.862 8.612 8.609a8.463 8.463 0 0 1-.544 2.976h.058l10.422-3.193a2.526 2.526 0 0 0 1.764-2.073l.213-1.557a2.132 2.132 0 0 0-1.247-2.24zM68.031 34.412v8.586l-12.418.621v-9.352c.066-.001.131-.006.199-.007 4.262-.036 8.418.03 12.219.152zm-34.948 6.883v-.977s7.764-4.796 18.887-5.845l-1.084 9.383-17.803.891s.847-.391.847-2.28c0 0-.066-.846-.847-1.172zm37.318 1.586v-4.484l2.319 4.368-2.319.116zm17.527-1.398a5.682 5.682 0 0 1-2.336.639l-10.209.51-4.303-8.105c7.874.333 13.711.889 14.863 1.218 1.822.521 3.475 3.011 3.41 4.249-.032.608-.728 1.123-1.425 1.489z"/></symbol><symbol viewBox="0 0 98.796 98.796" id="car-of-hatchback-model" xmlns="http://www.w3.org/2000/svg"><path d="M15.796 52.934a7.804 7.804 0 0 0-7.805 7.804c0 .334.027.66.069.982.483 3.847 3.759 6.824 7.736 6.824 4.087 0 7.434-3.142 7.773-7.141.018-.221.034-.44.034-.667.001-4.309-3.494-7.802-7.807-7.802zm-3.909 4.863l1.593 1.593a2.646 2.646 0 0 0-.283.687h-2.245a4.88 4.88 0 0 1 .935-2.28zm-.942 3.63h2.26c.064.239.158.469.282.677l-1.596 1.595a4.884 4.884 0 0 1-.946-2.272zm4.177 4.161a4.844 4.844 0 0 1-2.264-.939l1.587-1.587c.208.122.438.211.677.273v2.253zm0-7.446a2.59 2.59 0 0 0-.69.288l-1.59-1.591a4.854 4.854 0 0 1 2.28-.943v2.246zm1.352-2.246a4.84 4.84 0 0 1 2.28.944l-1.59 1.59a2.59 2.59 0 0 0-.69-.288v-2.246zm0 9.691v-2.252c.24-.063.468-.152.677-.275l1.588 1.589a4.897 4.897 0 0 1-2.265.938zm3.234-1.882l-1.601-1.603c.124-.209.227-.434.291-.676h2.243a4.903 4.903 0 0 1-.933 2.279zm-1.31-3.63a2.71 2.71 0 0 0-.283-.687l1.593-1.593c.493.653.818 1.429.935 2.278l-2.245.002zm63.107-7.141a7.804 7.804 0 0 0-7.805 7.804c0 .334.027.66.069.982.482 3.847 3.759 6.824 7.735 6.824 4.087 0 7.435-3.142 7.773-7.141.018-.221.034-.44.034-.667.002-4.309-3.493-7.802-7.806-7.802zm-3.91 4.863l1.594 1.593a2.612 2.612 0 0 0-.283.687h-2.245a4.879 4.879 0 0 1 .934-2.28zm-.941 3.63h2.26c.064.239.158.469.282.677L77.6 63.698a4.887 4.887 0 0 1-.946-2.271zm4.177 4.161a4.844 4.844 0 0 1-2.264-.939l1.587-1.587c.208.122.438.211.677.273v2.253zm0-7.446a2.57 2.57 0 0 0-.689.288l-1.591-1.591a4.858 4.858 0 0 1 2.28-.943v2.246zm1.351-2.246a4.833 4.833 0 0 1 2.279.944l-1.59 1.59a2.598 2.598 0 0 0-.689-.288v-2.246zm0 9.691v-2.252c.239-.063.468-.152.677-.275l1.588 1.589a4.888 4.888 0 0 1-2.265.938zm3.234-1.882l-1.601-1.603c.124-.209.227-.434.291-.676h2.243a4.882 4.882 0 0 1-.933 2.279zm-1.308-3.63a2.71 2.71 0 0 0-.283-.687l1.593-1.593c.493.653.818 1.429.936 2.278l-2.246.002z"/><path d="M98.125 50.451l-1.5-1.433.003-4.521a4.782 4.782 0 0 0-1.233-3.211l-5.545-6.141v-.003a2.69 2.69 0 0 0-2.197-2.589c-6.593-1.239-27.049-4.442-43.24-.092-10.003 2.687-20.173 8.096-20.173 8.096s-17.66 2.25-21.892 7.766C.874 50.243.256 52.765.032 55.037a6.298 6.298 0 0 0 4.886 6.775l1.633.368c-.014-.089-.035-.176-.046-.268a9.113 9.113 0 0 1-.081-1.177c0-5.169 4.206-9.374 9.375-9.374 5.17 0 9.376 4.205 9.376 9.374 0 .271-.018.533-.04.798a9.066 9.066 0 0 1-.131.941l47.323.096c-.043-.218-.086-.435-.114-.658a9.113 9.113 0 0 1-.081-1.177c0-5.169 4.206-9.374 9.375-9.374 5.17 0 9.376 4.205 9.376 9.374a9.558 9.558 0 0 1-.202 1.872l.646.001 2.692-1.475a9.099 9.099 0 0 0 4.723-7.636l.054-1.399a2.172 2.172 0 0 0-.671-1.647zm-64.582-9.258l.724-2.893s10.961-5.734 29.306-5.11v8.549l-29.381 2.318s.158-1.834-.649-2.864zm47.078-.798l-13.815 1.09V33.37c4.543.33 9.48 1.047 14.779 2.327.536.129.966.527 1.137 1.051.172.524.06 1.1-.297 1.52l-1.804 2.127z"/></symbol><symbol viewBox="0 0 512 512" id="chauffeur" xmlns="http://www.w3.org/2000/svg"><path d="M391 195v-8.1c-8.8 5.1-19.1 8.1-30 8.1H151c-10.9 0-21.2-2.9-30-8.1v8.1c0 74.4 60.6 135 135 135s135-60.6 135-135zm-240-30h210c16.5 0 30-13.5 30-30H121c0 16.5 13.5 30 30 30zm-30-90h270v30H121zm391 375c0-33-27-60-60-60h-46v122h106v-62zM60 390c-33 0-60 27-60 60v62h106V390H60zm166.8-30l15 45h28.4l15-45zm149.2 0h-59.2l-20 60 30.6 92H376zm-160.8 60l-20-60H136v152h48.6zm80.6 92l-25.6-77h-28.4l-25.6 77zM391 45c12.4 0 22.5-10.1 22.5-22.5S403.4 0 391 0H121c-12.4 0-22.5 10.1-22.5 22.5S108.6 45 121 45h270z"/></symbol><symbol viewBox="0 0 344.96 344.96" id="check" xmlns="http://www.w3.org/2000/svg"><g data-name="Слой 2"><path d="M321.85 86.24l-40-23.11-23.1-40H212.5L172.48 0l-40 23.11H86.24l-23.11 40-40 23.1v46.21L0 172.48l23.11 40v46.21l40 23.11 23.11 40h46.21l40 23.1 40-23.11h46.21l23.11-40 40-23.11V212.5l23.11-40-23.11-40V86.24zM156.91 243.07a16.79 16.79 0 0 1-23.34 0l-50.45-50.44a16.19 16.19 0 0 1 0-22.89l13.35-13.35a16.19 16.19 0 0 1 22.89 0l25.87 25.87 80.34-80.35a16.19 16.19 0 0 1 22.89 0l13.35 13.35a16.19 16.19 0 0 1 0 22.89z" data-name="Capa 1"/></g></symbol><symbol viewBox="0 0 99.382 99.382" id="coupe-car" xmlns="http://www.w3.org/2000/svg"><path d="M17.001 49.693a7.459 7.459 0 0 0-7.46 7.459c0 .319.026.631.066.938.462 3.677 3.593 6.521 7.394 6.521a7.458 7.458 0 0 0 7.429-6.823c.019-.211.032-.422.032-.638a7.457 7.457 0 0 0-7.461-7.457zm-3.737 4.649l1.522 1.521a2.557 2.557 0 0 0-.271.656H12.37a4.671 4.671 0 0 1 .894-2.177zm-.9 3.47h2.16c.062.229.15.447.27.646l-1.524 1.524a4.666 4.666 0 0 1-.906-2.17zm3.992 3.975a4.636 4.636 0 0 1-2.164-.896l1.517-1.518c.199.116.418.201.647.262v2.152zm0-7.115a2.592 2.592 0 0 0-.66.274l-1.521-1.521a4.635 4.635 0 0 1 2.181-.901v2.148zm1.291-2.148a4.651 4.651 0 0 1 2.18.902l-1.52 1.52a2.536 2.536 0 0 0-.66-.274v-2.148zm0 9.262v-2.151c.229-.061.447-.146.646-.264l1.519 1.52a4.65 4.65 0 0 1-2.165.895zm3.091-1.798l-1.53-1.531c.118-.199.217-.414.278-.646h2.144a4.658 4.658 0 0 1-.892 2.177zm-1.251-3.468a2.593 2.593 0 0 0-.271-.656l1.522-1.521a4.65 4.65 0 0 1 .894 2.179l-2.145-.002zm59.124-6.762a7.427 7.427 0 0 0-7.428 7.428c0 .317.025.627.064.934.46 3.66 3.578 6.494 7.363 6.494a7.424 7.424 0 0 0 7.396-6.794c.019-.21.032-.42.032-.634a7.424 7.424 0 0 0-7.427-7.428zm-3.72 4.629l1.516 1.516a2.57 2.57 0 0 0-.27.653h-2.136a4.618 4.618 0 0 1 .89-2.169zm-.897 3.455h2.15c.062.229.15.444.269.644l-1.519 1.52a4.69 4.69 0 0 1-.9-2.164zm3.975 3.959a4.619 4.619 0 0 1-2.154-.896l1.51-1.51c.198.115.417.201.645.26v2.146zm0-7.086a2.56 2.56 0 0 0-.656.272l-1.514-1.514a4.639 4.639 0 0 1 2.17-.897v2.139zm1.286-2.139a4.638 4.638 0 0 1 2.17.898l-1.513 1.513a2.497 2.497 0 0 0-.657-.272v-2.139zm0 9.224v-2.145c.229-.059.446-.146.645-.262l1.511 1.512a4.641 4.641 0 0 1-2.156.895zm3.077-1.791l-1.523-1.524c.117-.199.216-.412.276-.643h2.134a4.642 4.642 0 0 1-.887 2.167zm-1.245-3.454a2.5 2.5 0 0 0-.27-.653l1.516-1.516c.469.622.778 1.357.889 2.169h-2.135z"/><path d="M99.352 52.001a5.185 5.185 0 0 0-.882-2.759l-.402-.6-1.757-4.635a2.434 2.434 0 0 0-2.07-1.562 166.788 166.788 0 0 0-7.465-.471c-9.794-5.201-27.904-10.43-43.262-4.731-3.151 1.169-12.154 5.744-12.154 5.744s-14.62-.37-25.047 3.349A9.501 9.501 0 0 0 .047 56.22c.087.869.215 1.642.341 2.266a2.314 2.314 0 0 0 2.015 1.842l6.487.711a8.932 8.932 0 0 1-.818-2.755 8.75 8.75 0 0 1-.078-1.132c0-4.967 4.041-9.008 9.008-9.008 4.968 0 9.01 4.042 9.01 9.008 0 .26-.017.514-.038.768a8.87 8.87 0 0 1-.868 3.135h45.045l.365-.021a8.906 8.906 0 0 1-.804-2.72 8.762 8.762 0 0 1-.077-1.127c0-4.95 4.026-8.978 8.977-8.978s8.978 4.026 8.978 8.978c0 .259-.017.511-.038.764a8.79 8.79 0 0 1-.453 2.11L88.112 60l6.979-.923a3.947 3.947 0 0 0 2.898-1.936l.695-1.199c.479-.83.721-1.777.695-2.735l-.027-1.206zM74.63 43.068H40.469s.203-.809-.69-1.786c0 0 8.733-5.633 22.22-4.226 3.711.388 8.246.651 14.42 3.86l-1.789 2.152z"/></symbol><symbol viewBox="0 0 512 512" id="coupon" xmlns="http://www.w3.org/2000/svg"><path d="M512 160V96c0-17.7-14.3-32-32-32H32C14.3 64 0 78.3 0 96v64c53 0 96 43 96 96s-43 96-96 96v64c0 17.7 14.3 32 32 32h448c17.7 0 32-14.3 32-32v-64c-53 0-96-43-96-96s43-96 96-96zM192 416h-32v-64h32v64zm0-128h-32v-64h32v64zm0-128h-32V96h32v64z"/></symbol><symbol viewBox="0 0 99.088 99.087" id="jeep" xmlns="http://www.w3.org/2000/svg"><path d="M15.078 51.768c-5.832 0-10.562 4.728-10.562 10.562 0 .451.037.891.094 1.328.655 5.205 5.086 9.233 10.468 9.233 5.526 0 10.058-4.25 10.516-9.66.024-.298.045-.597.045-.901 0-5.834-4.728-10.562-10.561-10.562zm-3.971 7.571l1.617 1.618a2.667 2.667 0 0 0-.287.697h-2.28a4.915 4.915 0 0 1 .95-2.315zm-.96 3.69h2.298c.064.245.16.475.287.688l-1.621 1.621a4.982 4.982 0 0 1-.964-2.309zm4.245 4.226a4.933 4.933 0 0 1-2.301-.956l1.611-1.611c.213.125.445.215.689.277l.001 2.29zm0-7.564a2.658 2.658 0 0 0-.701.292l-1.615-1.617a4.935 4.935 0 0 1 2.316-.958v2.283zm1.374-2.282c.864.12 1.653.454 2.316.959l-1.616 1.616a2.651 2.651 0 0 0-.7-.292v-2.283zm0 9.844v-2.288c.244-.062.475-.155.688-.279l1.612 1.612a4.937 4.937 0 0 1-2.3.955zm3.283-1.911l-1.626-1.627c.128-.214.23-.44.295-.687h2.28a4.957 4.957 0 0 1-.949 2.314zm-1.328-3.687a2.723 2.723 0 0 0-.287-.697l1.618-1.618c.5.664.831 1.452.949 2.315h-2.28zm62.565-9.887c-5.831 0-10.562 4.728-10.562 10.562 0 .451.037.891.095 1.328.655 5.205 5.085 9.233 10.467 9.233 5.527 0 10.06-4.25 10.517-9.66.023-.298.045-.597.045-.901 0-5.834-4.728-10.562-10.562-10.562zm-3.971 7.571l1.618 1.618a2.672 2.672 0 0 0-.289.697h-2.278a4.914 4.914 0 0 1 .949-2.315zm-.959 3.69h2.298c.062.245.16.475.287.688l-1.622 1.621a4.98 4.98 0 0 1-.963-2.309zm4.244 4.226a4.938 4.938 0 0 1-2.301-.956l1.612-1.611c.212.125.444.215.688.277v2.29h.001zm0-7.564c-.25.063-.482.164-.7.292l-1.615-1.617a4.936 4.936 0 0 1 2.315-.958v2.283zm1.375-2.282c.865.12 1.652.454 2.315.959l-1.614 1.616a2.7 2.7 0 0 0-.701-.292v-2.283zm0 9.844v-2.288c.244-.062.476-.155.688-.279l1.613 1.612a4.945 4.945 0 0 1-2.301.955zm3.283-1.911l-1.627-1.627c.129-.214.23-.44.297-.687h2.278a4.935 4.935 0 0 1-.948 2.314zm-1.328-3.687a2.723 2.723 0 0 0-.287-.697l1.619-1.618c.5.664.83 1.452.947 2.315H82.93zm-7.016-35.457l-28.335.357a1.538 1.538 0 0 0 .001 3.077h.038l28.335-.357a1.54 1.54 0 0 0 1.52-1.558c-.012-.85-.733-1.551-1.559-1.519zM64.707 62.041H31.253a1.538 1.538 0 0 0 0 3.078h33.454a1.538 1.538 0 1 0 0-3.078z"/><path d="M98.658 53.259a1.887 1.887 0 0 0-1.458-.688h-1.749l-1.777-19.458a2.062 2.062 0 0 0-2.086-1.875l-50.028.75a2.568 2.568 0 0 0-1.988.991l-6.631 8.523-21.714 1.345a3.823 3.823 0 0 0-2.926 1.668l-1.223 1.799s-2.094.737-2.655 1.201c-.487.403-1.456 2.069-1.456 2.069a.851.851 0 0 0-.059.884.85.85 0 0 0 .757.46v1.896H1.858A1.859 1.859 0 0 0 0 54.682v3.424a2.305 2.305 0 0 0 2.305 2.305H3.54l3.183-8.782c.29-.8 1.05-1.333 1.9-1.333h11.11c.63 0 1.225.294 1.607.796l7.484 9.824h39.064l5.482-9.25a2.017 2.017 0 0 1 1.738-.99h10.201c.72 0 1.385.383 1.748 1.005l5.375 9.236h1.928a4.246 4.246 0 0 0 4.165-3.425l.524-2.666a1.876 1.876 0 0 0-.391-1.567zm-47.59-9.792H39.54v-3.541h-2.335l3.494-4.613a.809.809 0 0 1 .633-.321l11.694-.174v5.108l-1.958 3.541zm19.063 0H57.699v-8.719l14.993-.223v6.38l-2.561 2.562zm6.407 0v-9l12.907-.192a.415.415 0 0 1 .419.385l.606 8.807H76.538z"/></symbol><symbol viewBox="0 0 99.325 99.325" id="microbus" xmlns="http://www.w3.org/2000/svg"><path d="M99.301 60.244a.811.811 0 0 0-.719-.792l-1.326-.15-.026-1.353.641-.59c.353-.327.55-.788.541-1.269l-.08-4.219a1.68 1.68 0 0 0-1.382-1.621s-.739-16.364-4.154-19.386c-3.75-3.321-66.754-3.699-80.39-.823a5.412 5.412 0 0 0-2.898 1.662c-2.844 3.14-5.724 9.506-5.724 9.506s-1.717.477-2.402 2.924c-.245.877-.274 3.102-.206 5.693l-.088.002A1.11 1.11 0 0 0 0 50.957l.047 2.45a1.105 1.105 0 0 0 1.129 1.087l.196-.003c.072 1.328.153 2.611.229 3.732a4.114 4.114 0 0 0 4.108 3.834l6.867-.004 2.56-5.704a3 3 0 0 1 2.682-1.771l5.967-.114a3.003 3.003 0 0 1 2.673 1.53l3.406 6.05 38.994-.022 3.116-5.946a3.068 3.068 0 0 1 2.722-1.645l5.688.007a3.067 3.067 0 0 1 2.695 1.608l4.834 8.938 5.937-.074a2.638 2.638 0 0 0 2.4-1.669l2.547-.94a.808.808 0 0 0 .529-.774l-.025-1.283zM9.961 41.373a1.6 1.6 0 0 1-1.495-2.24l2.46-5.607c.226-.516.73-.852 1.292-.862l.895-.017.083 8.664-3.235.062zm18.131-1.624a1.42 1.42 0 0 1-1.389 1.306l-12.784.243-.082-8.666 13.284-.253c.401-.008.787.155 1.062.446.275.293.413.688.381 1.089l-.472 5.835zm29.194.886a1.426 1.426 0 0 1-1.019.422l-21.862-.116a1.42 1.42 0 0 1-1.412-1.393l-.111-5.818a1.42 1.42 0 0 1 1.431-1.447l21.863.174a1.42 1.42 0 0 1 1.409 1.394l.109 5.761c.009.38-.139.75-.408 1.023zm29.526-.129a1.43 1.43 0 0 1-1.104.521l-23.166-.089a1.422 1.422 0 0 1-1.414-1.394l-.109-5.816a1.424 1.424 0 0 1 1.43-1.447l20.539.164a3.345 3.345 0 0 1 3.251 2.673l.865 4.202c.086.418-.021.853-.292 1.186z"/><path d="M20.931 56.037a7.592 7.592 0 0 0-7.519 7.662c.003.325.033.641.076.954.505 3.737 3.718 6.603 7.586 6.564a7.587 7.587 0 0 0 7.494-7.014c.016-.215.029-.432.027-.649a7.59 7.59 0 0 0-7.664-7.517zm-.629 2.889l.021 2.184a2.51 2.51 0 0 0-.668.286l-1.562-1.53a4.697 4.697 0 0 1 2.209-.94zm-3.128 1.878l1.564 1.533c-.12.21-.211.433-.27.671l-2.182.021a4.718 4.718 0 0 1 .888-2.225zm-.883 3.538l2.198-.021c.064.233.158.455.281.656l-1.537 1.565a4.745 4.745 0 0 1-.942-2.2zm1.889 3.116l1.529-1.559c.203.115.428.201.661.26l.021 2.188a4.709 4.709 0 0 1-2.211-.889zm7.53-4.52l-2.183.021a2.644 2.644 0 0 0-.281-.665l1.534-1.563c.486.631.808 1.381.93 2.207zm-4.094-4.025c.83.106 1.587.42 2.226.896l-1.531 1.562a2.568 2.568 0 0 0-.674-.275l-.021-2.183zm.089 9.423l-.021-2.188c.234-.062.455-.152.657-.274l1.558 1.532a4.695 4.695 0 0 1-2.194.93zm3.128-1.861l-1.571-1.541c.117-.205.216-.424.276-.661l2.181-.021a4.714 4.714 0 0 1-.886 2.223zm52.681-10.438a7.593 7.593 0 0 0-7.519 7.662c.003.325.033.641.076.954.505 3.737 3.718 6.603 7.586 6.564a7.587 7.587 0 0 0 7.494-7.014c.016-.215.028-.432.026-.649a7.588 7.588 0 0 0-7.663-7.517zm-.629 2.889l.021 2.184a2.51 2.51 0 0 0-.668.286l-1.562-1.53a4.701 4.701 0 0 1 2.209-.94zm-3.128 1.878l1.564 1.533c-.12.21-.211.433-.271.671l-2.182.021a4.74 4.74 0 0 1 .889-2.225zm-.883 3.538l2.198-.021c.063.233.158.455.281.656l-1.537 1.565a4.745 4.745 0 0 1-.942-2.2zm1.889 3.116l1.529-1.559c.203.115.428.201.661.26l.021 2.188a4.709 4.709 0 0 1-2.211-.889zm7.53-4.52l-2.183.022a2.644 2.644 0 0 0-.281-.665l1.534-1.563c.487.63.809 1.38.93 2.206zm-4.094-4.025c.83.106 1.587.42 2.226.896l-1.53 1.562a2.575 2.575 0 0 0-.675-.275l-.021-2.183zm.089 9.423l-.021-2.188c.233-.062.454-.152.656-.274l1.559 1.532a4.695 4.695 0 0 1-2.194.93zm3.128-1.861l-1.571-1.541a2.61 2.61 0 0 0 .276-.661l2.181-.021a4.704 4.704 0 0 1-.886 2.223z"/></symbol><symbol viewBox="0 0 99.288 99.288" id="pick-up" xmlns="http://www.w3.org/2000/svg"><path d="M17.794 50.41a7.9 7.9 0 0 0-7.902 7.899c0 .34.027.67.07.994.49 3.896 3.806 6.91 7.832 6.91 4.139 0 7.527-3.179 7.871-7.229a8.38 8.38 0 0 0 .034-.676c0-4.363-3.538-7.898-7.905-7.898zm-3.958 4.923l1.613 1.612a2.654 2.654 0 0 0-.287.695h-2.271a4.91 4.91 0 0 1 .945-2.307zm-.954 3.675h2.288c.065.244.161.476.287.688l-1.616 1.613a4.95 4.95 0 0 1-.959-2.301zm4.228 4.213a4.9 4.9 0 0 1-2.292-.949l1.607-1.607c.21.123.442.214.685.276v2.28zm0-7.539c-.248.064-.48.164-.698.291l-1.609-1.609a4.908 4.908 0 0 1 2.308-.955l-.001 2.273zm1.369-2.273c.863.12 1.648.452 2.31.956l-1.609 1.608a2.717 2.717 0 0 0-.7-.291l-.001-2.273zm0 9.812v-2.28a2.65 2.65 0 0 0 .687-.279l1.606 1.61a4.932 4.932 0 0 1-2.293.949zm3.274-1.908l-1.62-1.619c.125-.213.229-.439.294-.686h2.271a4.9 4.9 0 0 1-.945 2.305zm-1.325-3.672a2.684 2.684 0 0 0-.285-.695l1.611-1.612c.5.661.829 1.445.947 2.308h-2.273v-.001zm54.33-7.231a7.9 7.9 0 0 0-7.901 7.899c0 .34.026.67.067.994.49 3.896 3.808 6.91 7.834 6.91 4.139 0 7.526-3.179 7.87-7.229.02-.225.034-.446.034-.676a7.9 7.9 0 0 0-7.904-7.898zm-3.959 4.923l1.613 1.612a2.688 2.688 0 0 0-.287.695h-2.271a4.92 4.92 0 0 1 .945-2.307zm-.953 3.675h2.288c.064.244.16.476.286.688l-1.616 1.613a4.969 4.969 0 0 1-.958-2.301zm4.228 4.213a4.903 4.903 0 0 1-2.293-.949l1.606-1.607c.211.123.443.214.687.276v2.28zm0-7.539a2.71 2.71 0 0 0-.699.291l-1.608-1.609a4.903 4.903 0 0 1 2.309-.955l-.002 2.273zm1.367-2.273c.862.12 1.647.452 2.31.956l-1.608 1.608a2.732 2.732 0 0 0-.7-.291l-.002-2.273zm0 9.812v-2.28a2.65 2.65 0 0 0 .687-.279l1.607 1.61a4.931 4.931 0 0 1-2.294.949zm3.275-1.908l-1.62-1.619a2.76 2.76 0 0 0 .295-.686h2.271a4.922 4.922 0 0 1-.946 2.305zm-1.324-3.672a2.684 2.684 0 0 0-.285-.695l1.611-1.612a4.9 4.9 0 0 1 .945 2.308h-2.271v-.001z"/><path d="M97.999 52.649H96.44l-.4-9.369a1.073 1.073 0 0 0-1.082-1.027l-21.536.197v-7.78a1.31 1.31 0 0 0-1.311-1.31h-1.027a1.31 1.31 0 0 0-1.31 1.31v7.814l-2.86.026-.574-6.886a2.78 2.78 0 0 0-2.77-2.549H37.414c-.913 0-1.79.353-2.448.984l-8.782 8.428-16.811 1.774a8.694 8.694 0 0 0-5.915 3.261l-1.731 2.194a3.642 3.642 0 0 0-1.64 3.885l.521 2.356a2.67 2.67 0 0 0 2.044 2.036l5.737 1.248a9.403 9.403 0 0 1-.064-.932c0-5.221 4.248-9.468 9.47-9.468 5.224 0 9.473 4.248 9.473 9.468 0 .272-.018.539-.039.806-.006.069-.02.136-.027.204h38.157a9.131 9.131 0 0 1-.07-1.01c0-5.221 4.248-9.468 9.471-9.468 5.225 0 9.473 4.248 9.473 9.468 0 .272-.019.539-.039.806-.006.069-.021.136-.027.204h4.808l4.356-2.401h4.672c.711 0 1.287-.575 1.287-1.286v-1.695a1.292 1.292 0 0 0-1.291-1.288zm-64.928-9.647s.559-1.347 0-2.89l3.467-4.299c.198-.245.496-.388.81-.388h10.375v7.576l-14.652.001zm18.492 0v-7.576h9.415c.558 0 1.017.44 1.04.997l.273 6.579H51.563z"/></symbol><symbol viewBox="0 0 98.967 98.967" id="sedan-car-model" xmlns="http://www.w3.org/2000/svg"><path d="M17.275 52.156a7.468 7.468 0 0 0-7.468 7.468c0 .318.026.631.066.938.463 3.681 3.596 6.528 7.401 6.528a7.467 7.467 0 0 0 7.437-6.83c.017-.209.031-.422.031-.637a7.466 7.466 0 0 0-7.467-7.467zm-3.738 4.654l1.522 1.523a2.578 2.578 0 0 0-.271.656h-2.146c.11-.812.421-1.554.895-2.179zm-.905 3.472h2.163c.061.23.151.448.271.648l-1.526 1.525a4.672 4.672 0 0 1-.908-2.173zm3.997 3.981a4.652 4.652 0 0 1-2.166-.899l1.518-1.519c.2.117.419.203.648.263v2.155zm0-7.123a2.594 2.594 0 0 0-.66.275l-1.521-1.521a4.64 4.64 0 0 1 2.181-.902v2.148zm1.293-2.15a4.648 4.648 0 0 1 2.181.903l-1.52 1.521a2.594 2.594 0 0 0-.66-.275l-.001-2.149zm0 9.271v-2.152a2.55 2.55 0 0 0 .647-.264l1.519 1.519a4.654 4.654 0 0 1-2.166.897zm3.092-1.799l-1.531-1.533c.12-.201.217-.416.278-.646h2.146a4.659 4.659 0 0 1-.893 2.179zm-1.25-3.473a2.615 2.615 0 0 0-.271-.656l1.524-1.523c.471.625.782 1.367.894 2.18h-2.147zm59.52-6.833a7.468 7.468 0 0 0-7.468 7.468c0 .318.026.631.066.938.463 3.681 3.596 6.528 7.4 6.528 3.908 0 7.112-3.004 7.438-6.83.017-.209.031-.422.031-.637a7.465 7.465 0 0 0-7.467-7.467zm-3.738 4.654l1.521 1.523a2.578 2.578 0 0 0-.271.656H74.65a4.624 4.624 0 0 1 .896-2.179zm-.904 3.472h2.163c.061.23.151.448.271.648l-1.525 1.525a4.633 4.633 0 0 1-.909-2.173zm3.996 3.981a4.652 4.652 0 0 1-2.166-.899l1.518-1.519c.2.117.419.203.648.263v2.155zm0-7.123a2.594 2.594 0 0 0-.66.275l-1.521-1.521a4.636 4.636 0 0 1 2.181-.902v2.148zm1.294-2.15a4.648 4.648 0 0 1 2.181.903l-1.521 1.521a2.524 2.524 0 0 0-.66-.275V54.99zm0 9.271v-2.152a2.55 2.55 0 0 0 .647-.264l1.519 1.519a4.658 4.658 0 0 1-2.166.897zm3.091-1.799l-1.531-1.531c.12-.202.218-.416.278-.647h2.146a4.65 4.65 0 0 1-.893 2.178zm-1.25-3.473a2.578 2.578 0 0 0-.271-.656l1.523-1.523c.472.625.782 1.367.895 2.18h-2.147z"/><path d="M97.216 48.29v-5.526c0-.889-.646-1.642-1.524-1.779-2.107-.33-5.842-.953-7.52-1.47-2.406-.742-11.702-4.678-14.921-5.417-3.22-.739-17.738-4.685-31.643.135-2.353.815-12.938 5.875-19.162 8.506-1.833.04-19.976 3.822-20.942 6.414C.538 51.746.235 53.004.057 53.662c-.178.658 0 3.807 1.348 6 1.374.777 4.019 1.299 7.077 1.649-.035-.187-.073-.371-.097-.56a8.6 8.6 0 0 1-.078-1.125c0-4.945 4.022-8.969 8.968-8.969s8.968 4.023 8.968 8.969c0 .254-.017.506-.036.754a8.728 8.728 0 0 1-.292 1.613h.024l44.516-.896c-.02-.115-.046-.229-.061-.346a8.565 8.565 0 0 1-.078-1.125c0-4.945 4.022-8.968 8.968-8.968s8.969 4.022 8.969 8.968c0 .019-.002.035-.003.053l.19-.016 7.611-1.433s2.915-1.552 2.915-5.822c.001-2.848-1.75-4.118-1.75-4.118zm-44.159-5.239l-16.625.509c.306-2.491-1.169-3.05-1.169-3.05 6.609-5.999 19.929-6.202 19.929-6.202l-2.135 8.743zm18.658-.761l-15.15.509 1.373-8.49c7.83-.102 12.303 1.626 12.303 1.626l2.237 3.61-.763 2.745zm8.541-.052h-4.221l-4.22-5.795a79.895 79.895 0 0 1 7.209 3.287 2.354 2.354 0 0 1 1.232 2.508z"/></symbol><symbol viewBox="0 0 99.255 99.254" id="sportive-car" xmlns="http://www.w3.org/2000/svg"><path d="M21.569 50.122a7.23 7.23 0 0 0-7.161 7.299c.003.312.029.611.071.91a7.222 7.222 0 0 0 7.228 6.252 7.226 7.226 0 0 0 7.138-6.68 7.45 7.45 0 0 0 .026-.617 7.232 7.232 0 0 0-7.302-7.164zm-.598 2.752l.019 2.08a2.45 2.45 0 0 0-.637.273l-1.486-1.459a4.46 4.46 0 0 1 2.104-.894zm-2.98 1.789l1.488 1.461c-.111.199-.2.412-.255.637l-2.079.023a4.48 4.48 0 0 1 .846-2.121zm-.843 3.371l2.095-.02c.062.223.15.432.268.625l-1.465 1.491a4.55 4.55 0 0 1-.898-2.096zm1.801 2.968l1.457-1.485c.193.108.407.192.63.248l.019 2.086a4.523 4.523 0 0 1-2.106-.849zm7.173-4.304l-2.08.02a2.38 2.38 0 0 0-.269-.635l1.462-1.49c.463.601.771 1.316.887 2.105zm-3.9-3.836c.791.102 1.512.4 2.12.854L22.884 55.2a2.525 2.525 0 0 0-.643-.262l-.019-2.076zm.086 8.976l-.02-2.086c.223-.059.432-.145.625-.262l1.483 1.459a4.465 4.465 0 0 1-2.088.889zm2.977-1.773l-1.495-1.467c.11-.195.205-.404.263-.632l2.076-.02a4.467 4.467 0 0 1-.844 2.119zm54.672-9.943a7.23 7.23 0 0 0-7.161 7.299c.003.312.029.611.071.91a7.221 7.221 0 0 0 7.228 6.252 7.226 7.226 0 0 0 7.138-6.68c.016-.205.028-.41.026-.617a7.232 7.232 0 0 0-7.302-7.164zm-.6 2.752l.02 2.08a2.436 2.436 0 0 0-.637.273l-1.486-1.459a4.449 4.449 0 0 1 2.103-.894zm-2.978 1.789l1.488 1.461a2.56 2.56 0 0 0-.256.637l-2.078.023a4.48 4.48 0 0 1 .846-2.121zm-.843 3.371l2.095-.02c.062.223.149.432.268.625l-1.465 1.491a4.529 4.529 0 0 1-.898-2.096zm1.801 2.968l1.457-1.485c.192.108.407.192.629.248l.02 2.086a4.514 4.514 0 0 1-2.106-.849zm7.173-4.304l-2.08.02a2.38 2.38 0 0 0-.269-.635l1.462-1.49c.463.601.771 1.316.887 2.105zm-3.902-3.836c.79.102 1.513.4 2.12.854L81.27 55.2a2.51 2.51 0 0 0-.643-.262l-.019-2.076zm.086 8.976l-.02-2.086c.223-.059.432-.145.625-.262l1.483 1.459a4.448 4.448 0 0 1-2.088.889zm2.979-1.773l-1.495-1.467c.11-.195.205-.404.263-.632l2.076-.02a4.467 4.467 0 0 1-.844 2.119z"/><path d="M99.122 42.375a.62.62 0 0 0-.483-.233h-6.388a.614.614 0 0 0-.572.393l-.407 1.045s-18.024-6.571-22.044-7.969c-3.117-1.084-11.719-1.004-16.776-.849-2.492.077-4.985.59-7.301 1.516-4.257 1.701-11.383 4.628-15.049 6.584-8.715.184-16.877 2.165-18.686 3.039-1.808.875-5.714 4.374-5.714 4.374L.978 52.764a1.833 1.833 0 0 0-.972 1.756l.283 3.816a1.832 1.832 0 0 0 1.553 1.676l11.253 1.697.926-.038a8.664 8.664 0 0 1-1.065-3.135 8.518 8.518 0 0 1-.086-1.1c-.046-4.835 3.85-8.807 8.686-8.854 4.876 0 8.809 3.897 8.854 8.688a9.73 9.73 0 0 1-.029.746 8.65 8.65 0 0 1-.796 3.01l42.45-.088a8.606 8.606 0 0 1-.691-2.401 8.344 8.344 0 0 1-.086-1.1c-.046-4.835 3.85-8.807 8.686-8.854 4.875 0 8.81 3.897 8.854 8.688a9.246 9.246 0 0 1-.315 2.392l.395-.031 7.636-2.291a1.833 1.833 0 0 0 1.293-1.534l.682-5.691a3.341 3.341 0 0 0-.422-2.066l-1.281-2.23 1.979-1.503a.63.63 0 0 0 .229-.35l.25-1.064a.655.655 0 0 0-.122-.528zm-34.335 1.049l-19.354.569s-.003-2.387-2.864-2.684l4.563-2.703a10.437 10.437 0 0 1 5.429-1.461c3.491.027 9.276.092 12.691.238a1.762 1.762 0 0 1 1.473 2.602c-.955 1.758-1.938 3.439-1.938 3.439z"/></symbol><symbol viewBox="0 0 480.6 480.6" id="telephone" xmlns="http://www.w3.org/2000/svg"><path d="M365.4 317.9c-15.7-15.5-35.3-15.5-50.9 0-11.9 11.8-23.8 23.6-35.5 35.6-3.2 3.3-5.9 4-9.8 1.8-7.7-4.2-15.9-7.6-23.3-12.2-34.5-21.7-63.4-49.6-89-81-12.7-15.6-24-32.3-31.9-51.1-1.6-3.8-1.3-6.3 1.8-9.4 11.9-11.5 23.5-23.3 35.2-35.1 16.3-16.4 16.3-35.6-.1-52.1-9.3-9.4-18.6-18.6-27.9-28-9.6-9.6-19.1-19.3-28.8-28.8-15.7-15.3-35.3-15.3-50.9.1-12 11.8-23.5 23.9-35.7 35.5C7.3 103.9 1.6 117 .4 132.3c-1.9 24.9 4.2 48.4 12.8 71.3 17.6 47.4 44.4 89.5 76.9 128.1 43.9 52.2 96.3 93.5 157.6 123.3 27.6 13.4 56.2 23.7 87.3 25.4 21.4 1.2 40-4.2 54.9-20.9 10.2-11.4 21.7-21.8 32.5-32.7 16-16.2 16.1-35.8.2-51.8-19-19.1-38.1-38.1-57.2-57.1zm-19.1-79.7l36.9-6.3c-5.8-33.9-21.8-64.6-46.1-89-25.7-25.7-58.2-41.9-94-46.9l-5.2 37.1c27.7 3.9 52.9 16.4 72.8 36.3 18.8 18.8 31.1 42.6 35.6 68.8zM404 77.8C361.4 35.2 307.5 8.3 248 0l-5.2 37.1c51.4 7.2 98 30.5 134.8 67.2 34.9 34.9 57.8 79 66.1 127.5l36.9-6.3c-9.7-56.2-36.2-107.2-76.6-147.7z"/></symbol><symbol viewBox="0 0 99.135 99.135" id="van-black-transport-side-view-pointing-to-left" xmlns="http://www.w3.org/2000/svg"><path d="M13.941 54.717a6.585 6.585 0 0 0-6.522 6.646c.003.281.029.556.066.826a6.579 6.579 0 0 0 6.581 5.695 6.579 6.579 0 0 0 6.5-6.085c.014-.185.025-.372.023-.562a6.585 6.585 0 0 0-6.648-6.52zm-.547 2.506l.018 1.894c-.207.057-.4.14-.58.25l-1.354-1.329a4.09 4.09 0 0 1 1.916-.815zm-2.713 1.628l1.357 1.331a2.254 2.254 0 0 0-.234.581l-1.892.02a4.1 4.1 0 0 1 .769-1.932zm-.766 3.069l1.907-.019c.056.204.137.396.244.57l-1.333 1.358a4.107 4.107 0 0 1-.818-1.909zm1.639 2.705l1.327-1.354c.177.102.372.177.574.227l.018 1.898a4.093 4.093 0 0 1-1.919-.771zm6.532-3.92l-1.894.019a2.288 2.288 0 0 0-.244-.578l1.331-1.354c.421.543.701 1.195.807 1.913zm-3.552-3.494c.72.094 1.376.365 1.931.778l-1.328 1.354a2.269 2.269 0 0 0-.585-.238l-.018-1.894zm.078 8.175l-.018-1.897c.203-.057.394-.134.57-.239l1.352 1.329a4.085 4.085 0 0 1-1.904.807zm2.713-1.614l-1.363-1.338c.103-.177.188-.367.24-.572l1.892-.019a4.113 4.113 0 0 1-.769 1.929zm60.341-9.055a6.582 6.582 0 0 0-6.521 6.646c.002.281.028.556.065.826a6.579 6.579 0 0 0 6.581 5.695 6.579 6.579 0 0 0 6.5-6.085c.014-.185.025-.372.023-.562a6.585 6.585 0 0 0-6.648-6.52zm-.546 2.506l.018 1.894c-.207.057-.399.14-.579.25l-1.354-1.329a4.078 4.078 0 0 1 1.915-.815zm-2.714 1.628l1.356 1.331a2.216 2.216 0 0 0-.233.581l-1.893.02c.093-.721.36-1.376.77-1.932zm-.765 3.069l1.906-.019c.057.204.137.396.244.57l-1.333 1.358a4.105 4.105 0 0 1-.817-1.909zm1.638 2.705l1.326-1.354c.178.102.373.177.574.227l.018 1.898a4.102 4.102 0 0 1-1.918-.771zm6.532-3.92l-1.894.019a2.288 2.288 0 0 0-.244-.578l1.331-1.354c.421.543.702 1.195.807 1.913zm-3.551-3.494a4.11 4.11 0 0 1 1.932.778l-1.328 1.354a2.275 2.275 0 0 0-.586-.238l-.018-1.894zm.078 8.175l-.018-1.897c.203-.057.394-.134.57-.239l1.352 1.329a4.09 4.09 0 0 1-1.904.807zm2.712-1.614l-1.362-1.338a2.19 2.19 0 0 0 .239-.572l1.892-.019a4.103 4.103 0 0 1-.769 1.929z"/><path d="M98.341 57.18l-2.272-.997s1.98-11.781-3.274-22.426a1.813 1.813 0 0 0-1.11-.936c-7.457-2.201-50.841-1.947-61.286-.129a5.42 5.42 0 0 0-2.469 1.119c-3.008 2.432-10.766 9.219-10.766 9.219S8.306 44.595 5.36 45.155c-2.568.488-3.776 1.837-3.765 3.64l.042 6.393-.979.295a.923.923 0 0 0-.658.886v2.671s.3 1.553 1.638 2.521c.196.143 1.771.24 4.307.31-.013-.162-.036-.321-.038-.488-.042-4.464 3.555-8.131 8.019-8.174 4.502 0 8.134 3.597 8.175 8.02.002.231-.027.688-.027.688l47.577-.31s-.017-.146-.018-.226c-.042-4.464 3.555-8.131 8.02-8.174 4.502 0 8.134 3.597 8.174 8.02.003.209-.023.622-.023.622l6.321-1.044v1.187c0 .271.221.492.493.492h1.113a.493.493 0 0 0 .492-.492v-1.271h3.588c.731 0 1.324-.594 1.324-1.325v-.999a1.33 1.33 0 0 0-.794-1.217zM37.653 43.484a.586.586 0 0 1-.585.55H26.142s.012-2.91-.047-3.639c-.093-1.145-.567-1.58-.567-1.58l4.007-3.688a2.661 2.661 0 0 1 1.745-.701l6.315-.132a.592.592 0 0 1 .599.624l-.541 8.566z"/></symbol><symbol viewBox="0 0 512 512" id="wallet" xmlns="http://www.w3.org/2000/svg"><path d="M256 256c0-70.6 57.4-128 128-128h96c0-35.3-28.7-64-64-64H64C28.7 64 0 92.7 0 128v256c0 35.3 28.7 64 64 64h352c35.3 0 64-28.7 64-64h-96c-70.6 0-128-57.4-128-128z"/><path d="M384 160c-53 0-96 43-96 96s43 96 96 96h128V160H384zm0 128c-17.7 0-32-14.3-32-32s14.3-32 32-32 32 14.3 32 32-14.3 32-32 32z"/></symbol></svg>