<?xml version="1.0" encoding="utf-8"?>
<!-- Generator: Adobe Illustrator 23.0.2, SVG Export Plug-In . SVG Version: 6.00 Build 0)  -->
<svg version="1.1" id="Capa_1" xmlns="http://www.w3.org/2000/svg" xmlns:xlink="http://www.w3.org/1999/xlink" x="0px" y="0px"
	 viewBox="0 0 512 512" style="enable-background:new 0 0 512 512;" xml:space="preserve">
<path d="M512,160V96c0-17.7-14.3-32-32-32H32C14.3,64,0,78.3,0,96v64c53,0,96,43,96,96s-43,96-96,96v64c0,17.7,14.3,32,32,32h448
	c17.7,0,32-14.3,32-32v-64c-53,0-96-43-96-96S459,160,512,160L512,160z M192,416h-32v-64h32V416z M192,288h-32v-64h32V288z M192,160
	h-32V96h32V160z"/>
</svg>
