<?xml version="1.0" encoding="utf-8"?>
<!-- Generator: Adobe Illustrator 23.0.2, SVG Export Plug-In . SVG Version: 6.00 Build 0)  -->
<svg version="1.1" id="Capa_1" xmlns="http://www.w3.org/2000/svg" xmlns:xlink="http://www.w3.org/1999/xlink" x="0px" y="0px"
	 viewBox="0 0 512 512" style="enable-background:new 0 0 512 512;" xml:space="preserve">
<path d="M256,256c0-70.6,57.4-128,128-128h96c0-35.3-28.7-64-64-64H64C28.7,64,0,92.7,0,128v256c0,35.3,28.7,64,64,64h352
	c35.3,0,64-28.7,64-64h-96C313.4,384,256,326.6,256,256L256,256z"/>
<path d="M384,160c-53,0-96,43-96,96s43,96,96,96h128V160L384,160z M384,288c-17.7,0-32-14.3-32-32c0-17.7,14.3-32,32-32
	s32,14.3,32,32C416,273.7,401.7,288,384,288z"/>
</svg>
